<svg width="24" height="24" viewBox="0 0 24 24" fill="none" xmlns="http://www.w3.org/2000/svg">
<g id="alert">
<rect width="24" height="24" fill="none"/>
<g id="1. Element/Icon/alert-circle">
<path id="Combined Shape" fill-rule="evenodd" clip-rule="evenodd" d="M12.3353 4.5C11.5488 4.5 10.8194 4.91065 10.4094 5.58665L4.05687 16.1917C3.651 16.8943 3.64861 17.7468 4.04451 18.4414C4.4404 19.1359 5.17511 19.5682 5.97453 19.577L18.6878 19.5771C19.4954 19.5682 20.2301 19.1359 20.626 18.4414C21.0219 17.7468 21.0195 16.8943 20.6198 16.202L14.2612 5.58665C13.8511 4.91065 13.1217 4.5 12.3353 4.5ZM5.34767 17.6986C5.2157 17.467 5.2165 17.1829 5.34976 16.9521L11.6949 6.35956C11.831 6.13628 12.0737 6 12.3353 6C12.5974 6 12.8406 6.13688 12.9765 6.36103L19.3269 16.9625C19.454 17.1829 19.4548 17.467 19.3229 17.6986C19.1909 17.9301 18.946 18.0742 18.6795 18.0771L5.98277 18.0771C5.72454 18.0742 5.47963 17.9301 5.34767 17.6986ZM11.5853 9.82706V12.8271C11.5853 13.2413 11.9211 13.5771 12.3353 13.5771C12.7495 13.5771 13.0853 13.2413 13.0853 12.8271V9.82706C13.0853 9.41285 12.7495 9.07706 12.3353 9.07706C11.9211 9.07706 11.5853 9.41285 11.5853 9.82706ZM12.8656 14.5467C13.1585 14.8396 13.1585 15.3145 12.8656 15.6074C12.5727 15.9003 12.0978 15.9003 11.8049 15.6074C11.512 15.3145 11.512 14.8396 11.8049 14.5467C12.0978 14.2538 12.5727 14.2538 12.8656 14.5467Z" fill="#FF0000"/>
<mask id="mask0" mask-type="alpha" maskUnits="userSpaceOnUse" x="3" y="4" width="18" height="16">
<path id="Combined Shape_2" fill-rule="evenodd" clip-rule="evenodd" d="M12.3353 4.5C11.5488 4.5 10.8194 4.91065 10.4094 5.58665L4.05687 16.1917C3.651 16.8943 3.64861 17.7468 4.04451 18.4414C4.4404 19.1359 5.17511 19.5682 5.97453 19.577L18.6878 19.5771C19.4954 19.5682 20.2301 19.1359 20.626 18.4414C21.0219 17.7468 21.0195 16.8943 20.6198 16.202L14.2612 5.58665C13.8511 4.91065 13.1217 4.5 12.3353 4.5ZM5.34767 17.6986C5.2157 17.467 5.2165 17.1829 5.34976 16.9521L11.6949 6.35956C11.831 6.13628 12.0737 6 12.3353 6C12.5974 6 12.8406 6.13688 12.9765 6.36103L19.3269 16.9625C19.454 17.1829 19.4548 17.467 19.3229 17.6986C19.1909 17.9301 18.946 18.0742 18.6795 18.0771L5.98277 18.0771C5.72454 18.0742 5.47963 17.9301 5.34767 17.6986ZM11.5853 9.82706V12.8271C11.5853 13.2413 11.9211 13.5771 12.3353 13.5771C12.7495 13.5771 13.0853 13.2413 13.0853 12.8271V9.82706C13.0853 9.41285 12.7495 9.07706 12.3353 9.07706C11.9211 9.07706 11.5853 9.41285 11.5853 9.82706ZM12.8656 14.5467C13.1585 14.8396 13.1585 15.3145 12.8656 15.6074C12.5727 15.9003 12.0978 15.9003 11.8049 15.6074C11.512 15.3145 11.512 14.8396 11.8049 14.5467C12.0978 14.2538 12.5727 14.2538 12.8656 14.5467Z" fill="white"/>
</mask>
<g mask="url(#mask0)">
</g>
</g>
</g>
</svg>
